<svg width="40" height="40" viewBox="0 0 40 40" fill="none" xmlns="http://www.w3.org/2000/svg">
<g clip-path="url(#clip0_623_6291)">
<path d="M3.09038 38V30.7273H4.40785V33.8061H7.77788V30.7273H9.0989V38H7.77788V34.9105H4.40785V38H3.09038ZM10.475 38V32.5455H11.7605V38H10.475ZM11.1213 31.7713C10.9177 31.7713 10.7425 31.7038 10.5957 31.5689C10.4489 31.4316 10.3755 31.267 10.3755 31.0753C10.3755 30.8812 10.4489 30.7166 10.5957 30.5817C10.7425 30.4444 10.9177 30.3757 11.1213 30.3757C11.3272 30.3757 11.5024 30.4444 11.6468 30.5817C11.7936 30.7166 11.867 30.8812 11.867 31.0753C11.867 31.267 11.7936 31.4316 11.6468 31.5689C11.5024 31.7038 11.3272 31.7713 11.1213 31.7713ZM17.3935 33.9872L16.2216 34.1151C16.1884 33.9967 16.1304 33.8854 16.0476 33.7812C15.9671 33.6771 15.8582 33.593 15.7209 33.5291C15.5836 33.4652 15.4155 33.4332 15.2166 33.4332C14.9491 33.4332 14.7242 33.4912 14.5419 33.6072C14.362 33.7232 14.2732 33.8736 14.2756 34.0582C14.2732 34.2169 14.3312 34.3459 14.4496 34.4453C14.5703 34.5447 14.7692 34.6264 15.0462 34.6903L15.9766 34.8892C16.4927 35.0005 16.8762 35.1768 17.1271 35.4183C17.3804 35.6598 17.5083 35.9759 17.5107 36.3665C17.5083 36.7098 17.4077 37.0128 17.2088 37.2756C17.0123 37.536 16.7389 37.7396 16.3885 37.8864C16.0381 38.0331 15.6357 38.1065 15.1811 38.1065C14.5135 38.1065 13.9761 37.9669 13.5689 37.6875C13.1617 37.4058 12.919 37.014 12.8409 36.5121L14.0945 36.3913C14.1513 36.6375 14.272 36.8234 14.4567 36.9489C14.6413 37.0743 14.8816 37.1371 15.1776 37.1371C15.483 37.1371 15.728 37.0743 15.9126 36.9489C16.0997 36.8234 16.1932 36.6683 16.1932 36.4837C16.1932 36.3274 16.1328 36.1984 16.0121 36.0966C15.8937 35.9948 15.709 35.9167 15.4581 35.8622L14.5277 35.6669C14.0045 35.558 13.6174 35.3745 13.3665 35.1165C13.1155 34.8561 12.9912 34.527 12.9936 34.1293C12.9912 33.7931 13.0824 33.5019 13.267 33.2557C13.4541 33.0071 13.7133 32.8153 14.0447 32.6804C14.3786 32.5431 14.7633 32.4744 15.1989 32.4744C15.8381 32.4744 16.3411 32.6106 16.7081 32.8828C17.0774 33.1551 17.3059 33.5232 17.3935 33.9872ZM21.2944 32.5455V33.5398H18.1587V32.5455H21.2944ZM18.9329 31.2386H20.2184V36.3594C20.2184 36.5322 20.2444 36.6648 20.2965 36.7571C20.351 36.8471 20.422 36.9086 20.5096 36.9418C20.5972 36.9749 20.6942 36.9915 20.8008 36.9915C20.8813 36.9915 20.9547 36.9856 21.021 36.9737C21.0896 36.9619 21.1417 36.9512 21.1772 36.9418L21.3938 37.9467C21.3252 37.9704 21.2269 37.9964 21.0991 38.0249C20.9736 38.0533 20.8197 38.0698 20.6374 38.0746C20.3155 38.084 20.0254 38.0355 19.7674 37.929C19.5094 37.8201 19.3046 37.652 19.1531 37.4247C19.0039 37.1974 18.9305 36.9134 18.9329 36.5724V31.2386ZM24.6902 38.1065C24.1575 38.1065 23.6958 37.9893 23.3052 37.755C22.9146 37.5206 22.6116 37.1927 22.3961 36.7713C22.1831 36.3499 22.0765 35.8575 22.0765 35.294C22.0765 34.7306 22.1831 34.237 22.3961 33.8132C22.6116 33.3894 22.9146 33.0604 23.3052 32.826C23.6958 32.5916 24.1575 32.4744 24.6902 32.4744C25.2228 32.4744 25.6845 32.5916 26.0751 32.826C26.4657 33.0604 26.7676 33.3894 26.9806 33.8132C27.1961 34.237 27.3038 34.7306 27.3038 35.294C27.3038 35.8575 27.1961 36.3499 26.9806 36.7713C26.7676 37.1927 26.4657 37.5206 26.0751 37.755C25.6845 37.9893 25.2228 38.1065 24.6902 38.1065ZM24.6973 37.0767C24.9861 37.0767 25.2276 36.9974 25.4217 36.8388C25.6158 36.6778 25.7602 36.4624 25.8549 36.1925C25.952 35.9226 26.0005 35.6219 26.0005 35.2905C26.0005 34.9567 25.952 34.6548 25.8549 34.3849C25.7602 34.1127 25.6158 33.8961 25.4217 33.7351C25.2276 33.5741 24.9861 33.4936 24.6973 33.4936C24.4013 33.4936 24.1551 33.5741 23.9586 33.7351C23.7645 33.8961 23.6189 34.1127 23.5218 34.3849C23.4271 34.6548 23.3798 34.9567 23.3798 35.2905C23.3798 35.6219 23.4271 35.9226 23.5218 36.1925C23.6189 36.4624 23.7645 36.6778 23.9586 36.8388C24.1551 36.9974 24.4013 37.0767 24.6973 37.0767ZM28.3949 38V32.5455H29.6413V33.4545H29.6982C29.7976 33.1397 29.968 32.897 30.2095 32.7266C30.4534 32.5537 30.7315 32.4673 31.044 32.4673C31.1151 32.4673 31.1944 32.4709 31.282 32.478C31.3719 32.4827 31.4465 32.491 31.5057 32.5028V33.6854C31.4512 33.6664 31.3648 33.6499 31.2464 33.6357C31.1304 33.6191 31.018 33.6108 30.9091 33.6108C30.6747 33.6108 30.464 33.6617 30.277 33.7635C30.0923 33.8629 29.9467 34.0014 29.8402 34.179C29.7337 34.3565 29.6804 34.5613 29.6804 34.7933V38H28.3949ZM33.3248 40.0455C33.1496 40.0455 32.9874 40.0313 32.8382 40.0028C32.6915 39.9768 32.5743 39.946 32.4867 39.9105L32.785 38.9091C32.972 38.9635 33.1389 38.9896 33.2857 38.9872C33.4325 38.9848 33.5615 38.9387 33.6728 38.8487C33.7864 38.7611 33.8823 38.6143 33.9604 38.4084L34.0705 38.1136L32.0925 32.5455H33.4561L34.7132 36.6648H34.7701L36.0307 32.5455H37.3979L35.214 38.6605C35.1122 38.9493 34.9772 39.1967 34.8091 39.4027C34.641 39.611 34.4351 39.7696 34.1912 39.8786C33.9498 39.9898 33.6609 40.0455 33.3248 40.0455Z" fill="#7E7D86"/>
<path d="M27.9086 14C27.9086 19.1165 23.7599 23.2642 18.6421 23.2642C13.5243 23.2642 9.37549 19.1165 9.37549 14C9.37549 8.88355 13.5243 4.73584 18.6421 4.73584C22.072 4.73584 25.0667 6.59886 26.6689 9.36793M25.3666 15.0167L27.6832 12.7006L29.9999 15.0167M22.1137 16.5262L18.6397 15.3682V10.526" stroke="#7E7D86" stroke-width="1.76461" stroke-linecap="round" stroke-linejoin="round"/>
</g>
<defs>
<clipPath id="clip0_623_6291">
<rect width="40" height="40" fill="white"/>
</clipPath>
</defs>
</svg>
