<svg width="40" height="40" viewBox="0 0 40 40" fill="none" xmlns="http://www.w3.org/2000/svg">
<path d="M12.6494 11.8897C12.6494 11.588 12.803 11.305 13.0615 11.1302L19.4315 6.82236C19.7715 6.59242 20.2273 6.59242 20.5673 6.82236L26.9373 11.1302C27.1959 11.305 27.3494 11.588 27.3494 11.8897V19.9519C27.3494 20.724 26.6913 21.3499 25.8794 21.3499H14.1194C13.3076 21.3499 12.6494 20.724 12.6494 19.9519V11.8897Z" stroke="#7E7D86" stroke-width="1.63333"/>
<path d="M6.50346 38V30.7273H7.82093V33.8061H11.191V30.7273H12.512V38H11.191V34.9105H7.82093V38H6.50346ZM16.2673 38.1065C15.7346 38.1065 15.273 37.9893 14.8824 37.755C14.4917 37.5206 14.1887 37.1927 13.9733 36.7713C13.7602 36.3499 13.6537 35.8575 13.6537 35.294C13.6537 34.7306 13.7602 34.237 13.9733 33.8132C14.1887 33.3894 14.4917 33.0604 14.8824 32.826C15.273 32.5916 15.7346 32.4744 16.2673 32.4744C16.8 32.4744 17.2616 32.5916 17.6523 32.826C18.0429 33.0604 18.3447 33.3894 18.5578 33.8132C18.7732 34.237 18.8809 34.7306 18.8809 35.294C18.8809 35.8575 18.7732 36.3499 18.5578 36.7713C18.3447 37.1927 18.0429 37.5206 17.6523 37.755C17.2616 37.9893 16.8 38.1065 16.2673 38.1065ZM16.2744 37.0767C16.5632 37.0767 16.8047 36.9974 16.9988 36.8388C17.193 36.6778 17.3374 36.4624 17.4321 36.1925C17.5291 35.9226 17.5777 35.6219 17.5777 35.2905C17.5777 34.9567 17.5291 34.6548 17.4321 34.3849C17.3374 34.1127 17.193 33.8961 16.9988 33.7351C16.8047 33.5741 16.5632 33.4936 16.2744 33.4936C15.9785 33.4936 15.7323 33.5741 15.5358 33.7351C15.3416 33.8961 15.1961 34.1127 15.099 34.3849C15.0043 34.6548 14.9569 34.9567 14.9569 35.2905C14.9569 35.6219 15.0043 35.9226 15.099 36.1925C15.1961 36.4624 15.3416 36.6778 15.5358 36.8388C15.7323 36.9974 15.9785 37.0767 16.2744 37.0767ZM19.972 38V32.5455H21.2007V33.4723H21.2646C21.3783 33.1598 21.5665 32.916 21.8293 32.7408C22.0921 32.5632 22.4057 32.4744 22.7703 32.4744C23.1396 32.4744 23.451 32.5644 23.7043 32.7443C23.96 32.9219 24.1399 33.1645 24.2441 33.4723H24.3009C24.4216 33.1693 24.6252 32.9278 24.9117 32.7479C25.2005 32.5656 25.5426 32.4744 25.9379 32.4744C26.4398 32.4744 26.8494 32.633 27.1666 32.9503C27.4839 33.2675 27.6425 33.7304 27.6425 34.3388V38H26.3534V34.5376C26.3534 34.1991 26.2635 33.9517 26.0835 33.7955C25.9036 33.6368 25.6834 33.5575 25.423 33.5575C25.1129 33.5575 24.8702 33.6546 24.695 33.8487C24.5222 34.0405 24.4358 34.2902 24.4358 34.598V38H23.1752V34.4844C23.1752 34.2027 23.0899 33.9777 22.9195 33.8097C22.7514 33.6416 22.5312 33.5575 22.259 33.5575C22.0743 33.5575 21.9062 33.6049 21.7547 33.6996C21.6032 33.7919 21.4825 33.9233 21.3925 34.0938C21.3025 34.2618 21.2575 34.4583 21.2575 34.6832V38H19.972ZM31.3614 38.1065C30.8145 38.1065 30.3422 37.9929 29.9445 37.7656C29.5492 37.536 29.2449 37.2116 29.0319 36.7926C28.8188 36.3712 28.7123 35.8752 28.7123 35.3047C28.7123 34.7436 28.8188 34.2512 29.0319 33.8274C29.2473 33.4013 29.548 33.0698 29.9339 32.8331C30.3198 32.594 30.7731 32.4744 31.2939 32.4744C31.6301 32.4744 31.9474 32.5289 32.2456 32.6378C32.5463 32.7443 32.8115 32.91 33.0411 33.1349C33.2731 33.3598 33.4554 33.6463 33.588 33.9943C33.7206 34.34 33.7868 34.7519 33.7868 35.2301V35.6243H29.316V34.7578H32.5546C32.5522 34.5116 32.499 34.2926 32.3948 34.1009C32.2906 33.9067 32.145 33.754 31.958 33.6428C31.7733 33.5315 31.5579 33.4759 31.3117 33.4759C31.0489 33.4759 30.8181 33.5398 30.6192 33.6676C30.4204 33.7931 30.2653 33.9588 30.154 34.1648C30.0451 34.3684 29.9895 34.5921 29.9871 34.8359V35.5923C29.9871 35.9096 30.0451 36.1818 30.1611 36.4091C30.2771 36.634 30.4393 36.8068 30.6476 36.9276C30.856 37.0459 31.0998 37.1051 31.3792 37.1051C31.5662 37.1051 31.7355 37.0791 31.887 37.027C32.0385 36.9725 32.1699 36.8932 32.2812 36.7891C32.3924 36.6849 32.4765 36.5559 32.5333 36.402L33.7336 36.5369C33.6578 36.8542 33.5134 37.1312 33.3003 37.3679C33.0896 37.6023 32.8198 37.7846 32.4907 37.9148C32.1616 38.0426 31.7852 38.1065 31.3614 38.1065Z" fill="#7E7D86"/>
</svg>
