<svg width="38" height="38" viewBox="0 0 38 38" fill="none" xmlns="http://www.w3.org/2000/svg">
<path d="M18.9902 12.3239L20.2281 11.1442L17.8688 8.66833L16.6309 9.848L18.9902 12.3239ZM6.85755 19.1612C6.17385 19.8127 6.14776 20.8951 6.79927 21.5788C7.45077 22.2625 8.53317 22.2886 9.21687 21.6371L6.85755 19.1612ZM16.6309 9.848L6.85755 19.1612L9.21687 21.6371L18.9902 12.3239L16.6309 9.848Z" fill="#F3537E"/>
<path d="M8.04674 19.3241C7.08487 19.3162 6.29871 20.0895 6.29079 21.0514C6.28288 22.0132 7.0562 22.7994 8.01807 22.8073L8.04674 19.3241ZM15.5931 22.8697L17.3347 22.884L17.3634 19.4008L15.6218 19.3864L15.5931 22.8697ZM8.01807 22.8073L15.5931 22.8697L15.6218 19.3864L8.04674 19.3241L8.01807 22.8073Z" fill="#F3537E"/>
<path d="M6.14433 21.0531C6.13713 21.9275 6.84015 22.6422 7.71457 22.6494C8.589 22.6566 9.30369 21.9536 9.31089 21.0792L6.14433 21.0531ZM9.37625 13.138L9.38928 11.5548L6.22272 11.5287L6.20969 13.112L9.37625 13.138ZM9.31089 21.0792L9.37625 13.138L6.20969 13.112L6.14433 21.0531L9.31089 21.0792Z" fill="#F3537E"/>
<path d="M7.01067 19.178C6.32961 19.8322 6.30788 20.9147 6.96213 21.5958C7.61639 22.2768 8.69889 22.2986 9.37995 21.6443L7.01067 19.178ZM22.8772 8.67837L24.1103 7.49373L21.7411 5.02737L20.5079 6.21201L22.8772 8.67837ZM9.37995 21.6443L22.8772 8.67837L20.5079 6.21201L7.01067 19.178L9.37995 21.6443Z" fill="#F3537E"/>
<path d="M15.1586 33.5325L13.9148 34.7059L16.2616 37.1936L17.5055 36.0202L15.1586 33.5325ZM31.1443 23.1537C31.8312 22.5056 31.8628 21.4233 31.2147 20.7364C30.5666 20.0494 29.4844 20.0179 28.7974 20.666L31.1443 23.1537ZM17.5055 36.0202L31.1443 23.1537L28.7974 20.666L15.1586 33.5325L17.5055 36.0202Z" fill="#F3537E"/>
<path d="M29.9693 22.8725C30.9312 22.8725 31.711 22.0928 31.711 21.1309C31.711 20.169 30.9312 19.3892 29.9693 19.3892L29.9693 22.8725ZM22.3926 19.3892L20.6509 19.3892L20.6509 22.8725L22.3926 22.8725L22.3926 19.3892ZM29.9693 19.3892L22.3926 19.3892L22.3926 22.8725L29.9693 22.8725L29.9693 19.3892Z" fill="#F3537E"/>
<path d="M31.8568 21.1281C31.8568 20.2536 31.1479 19.5448 30.2734 19.5448C29.399 19.5448 28.6901 20.2536 28.6901 21.1281L31.8568 21.1281ZM28.6901 29.071L28.6901 30.6544L31.8568 30.6544L31.8568 29.071L28.6901 29.071ZM28.6901 21.1281L28.6901 29.071L31.8568 29.071L31.8568 21.1281L28.6901 21.1281Z" fill="#F3537E"/>
</svg>
