<svg width="133" height="50" viewBox="0 0 133 50" fill="none" xmlns="http://www.w3.org/2000/svg">
<g clip-path="url(#clip0_53_606)">
<path d="M130.184 0.551472H2.63457C1.27989 0.551472 0.181702 1.66253 0.181702 3.03309V47.1507C0.181702 48.5213 1.27989 49.6324 2.63457 49.6324H130.184C131.538 49.6324 132.637 48.5213 132.637 47.1507V3.03309C132.637 1.66253 131.538 0.551472 130.184 0.551472Z" fill="black"/>
<path d="M45.6721 15.0206C45.6721 15.8662 45.4264 16.5404 44.9337 17.0426C44.3741 17.6412 43.6451 17.9397 42.7483 17.9397C41.8899 17.9397 41.1588 17.6375 40.5592 17.0301C39.9575 16.4243 39.658 15.6721 39.658 14.775C39.658 13.8772 39.9575 13.1257 40.5592 12.5184C41.1588 11.9125 41.8892 11.6096 42.7483 11.6096C43.1742 11.6096 43.5826 11.6941 43.9693 11.8632C44.3566 12.0324 44.667 12.2581 44.8995 12.5397L44.3762 13.0728C43.9831 12.5949 43.4409 12.3537 42.7483 12.3537C42.1218 12.3537 41.5803 12.5779 41.1232 13.0265C40.6661 13.4757 40.4386 14.0581 40.4386 14.775C40.4386 15.4912 40.6661 16.0735 41.1232 16.5221C41.5811 16.9713 42.1218 17.1949 42.7483 17.1949C43.4125 17.1949 43.9663 16.9699 44.4104 16.5184C44.6975 16.2243 44.8646 15.8162 44.9082 15.2904H42.7483V14.5625H45.6307C45.6583 14.7213 45.6721 14.8728 45.6721 15.0206" fill="white"/>
<path fill-rule="evenodd" clip-rule="evenodd" d="M45.6721 15.0206C45.6721 15.8662 45.4264 16.5404 44.9337 17.0426C44.3741 17.6412 43.6451 17.9397 42.7483 17.9397C41.8899 17.9397 41.1588 17.6375 40.5592 17.0301C39.9575 16.4243 39.658 15.6721 39.658 14.775C39.658 13.8772 39.9575 13.1257 40.5592 12.5184C41.1588 11.9125 41.8892 11.6096 42.7483 11.6096C43.1742 11.6096 43.5826 11.6941 43.9693 11.8632C44.3566 12.0324 44.667 12.2581 44.8995 12.5397L44.3762 13.0728C43.9831 12.5949 43.4409 12.3537 42.7483 12.3537C42.1218 12.3537 41.5803 12.5779 41.1232 13.0265C40.6661 13.4757 40.4386 14.0581 40.4386 14.775C40.4386 15.4912 40.6661 16.0735 41.1232 16.5221C41.5811 16.9713 42.1218 17.1949 42.7483 17.1949C43.4125 17.1949 43.9663 16.9699 44.4104 16.5184C44.6975 16.2243 44.8646 15.8162 44.9082 15.2904H42.7483V14.5625H45.6307C45.6583 14.7213 45.6721 14.8728 45.6721 15.0206V15.0206Z" stroke="white" stroke-width="0.563"/>
<path d="M50.2421 12.4897H47.5334V14.4103H49.9753V15.1382H47.5334V17.0596H50.2428V17.8051H46.7681V11.7449H50.2421V12.4897Z" fill="white"/>
<path fill-rule="evenodd" clip-rule="evenodd" d="M50.2421 12.4897H47.5334V14.4103H49.9753V15.1382H47.5334V17.0596H50.2428V17.8051H46.7681V11.7449H50.2421V12.4897Z" stroke="white" stroke-width="0.563"/>
<path d="M53.466 17.8044H52.7014V12.489H51.0393V11.7449H55.1274V12.489H53.466V17.8044Z" fill="white"/>
<path fill-rule="evenodd" clip-rule="evenodd" d="M53.466 17.8044H52.7014V12.489H51.0393V11.7449H55.1274V12.489H53.466V17.8044Z" stroke="white" stroke-width="0.563"/>
<path d="M58.0854 17.8044H58.85V11.7449H58.0854V17.8044Z" fill="white"/>
<path fill-rule="evenodd" clip-rule="evenodd" d="M58.0854 17.8044H58.85V11.7449H58.0854V17.8044Z" stroke="white" stroke-width="0.563"/>
<path d="M62.2396 17.8044H61.4758V12.489H59.8137V11.7449H63.9018V12.489H62.2396V17.8044Z" fill="white"/>
<path fill-rule="evenodd" clip-rule="evenodd" d="M62.2396 17.8044H61.4758V12.489H59.8137V11.7449H63.9018V12.489H62.2396V17.8044Z" stroke="white" stroke-width="0.563"/>
<path d="M67.8424 16.5147C68.2828 16.9684 68.8214 17.1949 69.4587 17.1949C70.0954 17.1949 70.6347 16.9684 71.0751 16.514C71.5155 16.0596 71.7365 15.4801 71.7365 14.775C71.7365 14.0699 71.5155 13.489 71.0751 13.0353C70.6347 12.5809 70.0954 12.3537 69.4587 12.3537C68.8214 12.3537 68.2828 12.5816 67.8424 13.0353C67.4034 13.489 67.1825 14.0699 67.1825 14.775C67.1825 15.4801 67.4034 16.0596 67.8424 16.514M71.6398 17.0213C71.0555 17.6338 70.3287 17.9404 69.4595 17.9404C68.5895 17.9404 67.8627 17.6338 67.2791 17.0213C66.6934 16.4088 66.4019 15.661 66.4019 14.775C66.4019 13.889 66.6934 13.1397 67.2784 12.5279C67.8627 11.9154 68.5895 11.6096 69.4587 11.6096C70.3236 11.6096 71.0482 11.9169 71.6362 12.5316C72.2234 13.1471 72.5163 13.8941 72.5163 14.7743C72.5163 15.6603 72.2241 16.4088 71.6398 17.0213Z" fill="white"/>
<path fill-rule="evenodd" clip-rule="evenodd" d="M67.8424 16.5147C68.2828 16.9684 68.8214 17.1949 69.4587 17.1949C70.0954 17.1949 70.6347 16.9684 71.0751 16.514C71.5155 16.0596 71.7365 15.4801 71.7365 14.775C71.7365 14.0699 71.5155 13.489 71.0751 13.0353C70.6347 12.5809 70.0954 12.3537 69.4587 12.3537C68.8214 12.3537 68.2828 12.5816 67.8424 13.0353C67.4034 13.489 67.1825 14.0699 67.1825 14.775C67.1825 15.4801 67.4034 16.0596 67.8424 16.514V16.5147ZM71.6398 17.0213C71.0555 17.6338 70.3287 17.9404 69.4595 17.9404C68.5895 17.9404 67.8627 17.6338 67.2791 17.0213C66.6934 16.4088 66.4019 15.661 66.4019 14.775C66.4019 13.889 66.6934 13.1397 67.2784 12.5279C67.8627 11.9154 68.5895 11.6096 69.4587 11.6096C70.3236 11.6096 71.0482 11.9169 71.6362 12.5316C72.2234 13.1471 72.5163 13.8941 72.5163 14.7743C72.5163 15.6603 72.2241 16.4088 71.6398 17.0213Z" stroke="white" stroke-width="0.563"/>
<path d="M73.589 17.8044V11.7449H74.5193L77.4104 16.4581H77.4438L77.4104 15.2904V11.7449H78.1757V17.8044H77.3777L74.3543 12.8618H74.3201L74.3536 14.0309V17.8044H73.589Z" fill="white"/>
<path fill-rule="evenodd" clip-rule="evenodd" d="M73.589 17.8044V11.7449H74.5193L77.4104 16.4581H77.4438L77.4104 15.2904V11.7449H78.1757V17.8044H77.3777L74.3543 12.8618H74.3201L74.3536 14.0309V17.8044H73.589Z" stroke="white" stroke-width="0.563"/>
<path d="M104.683 34.975H106.532V22.3485H104.683V34.975ZM121.347 26.8971L119.226 32.3713H119.163L116.962 26.8971H114.969L118.27 34.5478L116.388 38.8037H118.317L123.404 26.8971H121.348H121.347ZM110.854 33.5404C110.249 33.5404 109.404 33.2316 109.404 32.4676C109.404 31.4941 110.456 31.1199 111.366 31.1199C112.178 31.1199 112.562 31.2993 113.055 31.5419C112.911 32.7125 111.923 33.5404 110.854 33.5404ZM111.078 26.6199C109.739 26.6199 108.351 27.2221 107.777 28.5537L109.42 29.2522C109.77 28.5537 110.423 28.3257 111.11 28.3257C112.067 28.3257 113.039 28.911 113.055 29.95V30.0801C112.72 29.8853 112.002 29.5934 111.126 29.5934C109.355 29.5934 107.553 30.5846 107.553 32.4353C107.553 34.125 109.005 35.2147 110.631 35.2147C111.874 35.2147 112.562 34.6456 112.99 33.9794H113.056V34.9537H114.842V30.1125C114.842 27.8713 113.198 26.6199 111.078 26.6199V26.6199ZM99.6446 28.4338H97.013V24.1059H99.6439C101.028 24.1059 101.813 25.2721 101.813 26.2699C101.813 27.2478 101.028 28.4338 99.6446 28.4338V28.4338ZM99.5967 22.3478H95.1633V34.975H97.013V30.1912H99.5967C101.647 30.1912 103.663 28.6787 103.663 26.2699C103.663 23.861 101.647 22.3478 99.5967 22.3478V22.3478ZM75.4234 33.5426C74.1457 33.5426 73.0759 32.4529 73.0759 30.9559C73.0759 29.4419 74.1457 28.336 75.4234 28.336C76.6843 28.336 77.6749 29.4419 77.6749 30.9559C77.6749 32.4529 76.6843 33.5426 75.4234 33.5426ZM77.547 27.6037H77.4838C77.0681 27.1 76.2693 26.6434 75.2635 26.6434C73.1551 26.6434 71.2212 28.5309 71.2212 30.9559C71.2212 33.364 73.1544 35.2353 75.2635 35.2353C76.2693 35.2353 77.0681 34.7794 77.4838 34.2588H77.547V34.8765C77.547 36.5213 76.6843 37.3985 75.2955 37.3985C74.1617 37.3985 73.4582 36.5699 73.1711 35.8691L71.5577 36.5529C72.0206 37.6919 73.2503 39.0912 75.2955 39.0912C77.4685 39.0912 79.3051 37.7897 79.3051 34.6162V26.9037H77.547V27.6037ZM80.5828 34.975H82.4353V22.3485H80.5828V34.975V34.975ZM85.1665 30.8096C85.1193 29.1493 86.4289 28.3037 87.3708 28.3037C88.1063 28.3037 88.7292 28.6787 88.9371 29.2147L85.1665 30.8096V30.8096ZM90.9175 29.3772C90.565 28.4176 89.4952 26.6434 87.3076 26.6434C85.1346 26.6434 83.3292 28.3846 83.3292 30.9397C83.3292 33.3478 85.1193 35.2353 87.5147 35.2353C89.4472 35.2353 90.565 34.0316 91.0294 33.3309L89.5919 32.3551C89.1122 33.0706 88.4581 33.5426 87.5147 33.5426C86.5728 33.5426 85.9013 33.1029 85.4711 32.2412L91.1087 29.8654L90.9175 29.3772ZM45.9955 27.9625V29.7846H50.2755C50.1483 30.8096 49.8125 31.5581 49.3016 32.0787C48.678 32.7132 47.7034 33.4132 45.9948 33.4132C43.3587 33.4132 41.2983 31.2485 41.2983 28.564C41.2983 25.8801 43.3587 23.714 45.9955 23.714C47.4171 23.714 48.4549 24.2838 49.2216 25.0169L50.4833 23.7316C49.4128 22.6904 47.9919 21.8919 45.9955 21.8919C42.3841 21.8919 39.3491 24.8868 39.3491 28.564C39.3491 32.2404 42.3841 35.2353 45.9955 35.2353C47.9432 35.2353 49.4128 34.5838 50.5633 33.364C51.745 32.1596 52.1128 30.4669 52.1128 29.1007C52.117 28.7191 52.0849 28.3379 52.0168 27.9625H45.9955V27.9625ZM56.9785 33.5426C55.7016 33.5426 54.5991 32.4691 54.5991 30.9397C54.5991 29.3934 55.7016 28.336 56.9785 28.336C58.2569 28.336 59.3594 29.3934 59.3594 30.9397C59.3594 32.4691 58.2569 33.5426 56.9785 33.5426ZM56.9785 26.6434C54.647 26.6434 52.7465 28.45 52.7465 30.9397C52.7465 33.4132 54.647 35.2353 56.9785 35.2353C59.3115 35.2353 61.2127 33.4132 61.2127 30.9397C61.2127 28.45 59.3115 26.6434 56.9785 26.6434ZM66.2137 33.5426C64.9353 33.5426 63.8328 32.4691 63.8328 30.9397C63.8328 29.3934 64.9353 28.336 66.2137 28.336C67.4913 28.336 68.5931 29.3934 68.5931 30.9397C68.5931 32.4691 67.4913 33.5426 66.2137 33.5426ZM66.2137 26.6434C63.8814 26.6434 61.9809 28.45 61.9809 30.9397C61.9809 33.4132 63.8814 35.2353 66.2137 35.2353C68.5452 35.2353 70.4464 33.4132 70.4464 30.9397C70.4464 28.45 68.5452 26.6434 66.2137 26.6434Z" fill="white"/>
<path d="M26.1588 21.2169L11.4838 12.675C10.858 12.3125 10.1472 12.4529 9.67993 12.886L21.9821 25.4625L26.1581 21.2169H26.1588Z" fill="url(#paint0_linear_53_606)"/>
<path d="M9.68067 12.8868C9.52063 13.0333 9.39293 13.2122 9.30589 13.412C9.21886 13.6119 9.17445 13.828 9.17556 14.0463V36.9676C9.17556 37.4015 9.34417 37.7728 9.60145 38.0493L21.9828 25.4618L9.68067 12.8868Z" fill="url(#paint1_linear_53_606)"/>
<path d="M9.60144 38.0493C10.0637 38.5441 10.8246 38.7243 11.4852 38.3382L26.1821 29.7529L21.9835 25.461L9.60144 38.05V38.0493Z" fill="url(#paint2_linear_53_606)"/>
<path d="M31.1387 24.1154L26.1581 21.2169L21.9828 25.4618L26.1806 29.7537L31.1402 26.8566C32.1787 26.25 32.1765 24.7206 31.1387 24.1154" fill="url(#paint3_linear_53_606)"/>
</g>
<defs>
<linearGradient id="paint0_linear_53_606" x1="18.7613" y1="18.9652" x2="15.5046" y2="13.4855" gradientUnits="userSpaceOnUse">
<stop stop-color="#00F076"/>
<stop offset="1" stop-color="#0BE070"/>
</linearGradient>
<linearGradient id="paint1_linear_53_606" x1="12.3962" y1="24.8218" x2="15.6342" y2="24.5693" gradientUnits="userSpaceOnUse">
<stop stop-color="#00E2FF"/>
<stop offset="1" stop-color="#01C4F7"/>
</linearGradient>
<linearGradient id="paint2_linear_53_606" x1="14.4791" y1="35.9057" x2="17.1038" y2="32.6075" gradientUnits="userSpaceOnUse">
<stop stop-color="#EB214E"/>
<stop offset="1" stop-color="#FF3A44"/>
</linearGradient>
<linearGradient id="paint3_linear_53_606" x1="26.9504" y1="25.4853" x2="21.9828" y2="25.4853" gradientUnits="userSpaceOnUse">
<stop stop-color="#FFD902"/>
<stop offset="1" stop-color="#FFBD00"/>
</linearGradient>
<clipPath id="clip0_53_606">
<rect width="133" height="50" fill="white"/>
</clipPath>
</defs>
</svg>
