<svg width="52" height="52" viewBox="0 0 52 52" fill="none" xmlns="http://www.w3.org/2000/svg">
<path d="M7.8 0.65L44.2 0.65C48.1488 0.65 51.35 3.85116 51.35 7.8L51.35 44.2C51.35 48.1488 48.1488 51.35 44.2 51.35L7.8 51.35C3.85116 51.35 0.65 48.1488 0.65 44.2L0.65 7.8C0.65 3.85116 3.85116 0.65 7.8 0.65Z" stroke="white" stroke-width="1.3"/>
<path d="M20.0689 36.7764L18.0098 38.902L13.7586 34.7837L15.8178 32.6581L20.0689 36.7764ZM32.807 15.1209C33.9442 13.947 35.8178 13.9172 36.9917 15.0545C38.1656 16.1917 38.1954 18.0653 37.0581 19.2392L32.807 15.1209ZM15.8178 32.6581L32.807 15.1209L37.0581 19.2392L20.0689 36.7764L15.8178 32.6581Z" fill="white"/>
<path d="M33.1245 17.1804C33.1245 15.5157 34.474 14.1662 36.1387 14.1662C37.8034 14.1662 39.1529 15.5157 39.1529 17.1804H33.1245ZM39.1529 30.8813V33.8956H33.1245V30.8813H39.1529ZM39.1529 17.1804V30.8813H33.1245V17.1804H39.1529Z" fill="white"/>
<path d="M36.1425 13.8921C37.6559 13.8921 38.8827 15.119 38.8827 16.6323C38.8827 18.1457 37.6559 19.3725 36.1425 19.3725V13.8921ZM21.7793 19.3725H19.0391V13.8921H21.7793V19.3725ZM36.1425 19.3725L21.7793 19.3725V13.8921L36.1425 13.8921V19.3725Z" fill="white"/>
</svg>
