<svg width="40" height="40" viewBox="0 0 40 40" fill="none" xmlns="http://www.w3.org/2000/svg">
<path d="M0.5 9C0.5 4.30558 4.30558 0.5 9 0.5L31 0.5C35.6944 0.5 39.5 4.30558 39.5 9L39.5 31C39.5 35.6944 35.6944 39.5 31 39.5L9 39.5C4.30558 39.5 0.5 35.6944 0.5 31L0.5 9Z" stroke="white"/>
<path d="M14.4378 11.2102L12.8538 9.57518L9.58373 12.7431L11.1677 14.3781L14.4378 11.2102ZM24.2363 27.8683C25.1111 28.7713 26.5523 28.7942 27.4553 27.9194C28.3583 27.0446 28.3812 25.6034 27.5064 24.7004L24.2363 27.8683ZM11.1677 14.3781L24.2363 27.8683L27.5064 24.7004L14.4378 11.2102L11.1677 14.3781Z" fill="white"/>
<path d="M24.4802 26.2843C24.4802 27.5649 25.5183 28.603 26.7988 28.603C28.0794 28.603 29.1175 27.5649 29.1175 26.2843H24.4802ZM29.1175 15.7451V13.4265H24.4802V15.7451H29.1175ZM29.1175 26.2843V15.7451H24.4802V26.2843H29.1175Z" fill="white"/>
<path d="M26.8025 28.8137C27.9666 28.8137 28.9104 27.8699 28.9104 26.7058C28.9104 25.5417 27.9666 24.598 26.8025 24.598V28.8137ZM15.7539 24.598H13.6461V28.8137H15.7539V24.598ZM26.8025 24.598L15.7539 24.598V28.8137L26.8025 28.8137V24.598Z" fill="white"/>
</svg>
