<svg width="650" height="579" viewBox="0 0 650 579" fill="none" xmlns="http://www.w3.org/2000/svg">
<path fill-rule="evenodd" clip-rule="evenodd" d="M369.545 36.3161C424.5 56.865 430.738 130.329 475.457 168.275C529.304 213.967 642.924 203.806 649.707 274.047C656.319 342.52 549.478 356.619 498.064 402.398C452.361 443.091 428.891 508.451 369.545 523.501C173.26 632.544 184.251 558.929 153.545 489.763C119.798 413.746 3.17745 357.143 0.0823993 274.047C-3.30154 183.195 98.4561 124.095 136.855 41.6635C170.875 -31.3678 294.012 8.07257 369.545 36.3161Z" fill="#CBB5E6"/>
<path fill-rule="evenodd" clip-rule="evenodd" d="M353.595 82.8557C398.743 99.7491 403.868 160.145 440.606 191.34C484.844 228.904 578.187 220.55 583.759 278.296C589.191 334.588 501.417 346.179 459.179 383.814C421.632 417.268 402.35 471.002 353.595 483.374C192.34 573.019 201.369 512.499 176.143 455.637C148.419 393.143 52.6104 346.61 50.0677 278.296C47.2877 203.606 130.885 155.019 162.432 87.2518C190.38 27.2123 291.542 59.6365 353.595 82.8557Z" fill="#8166A0"/>
<path fill-rule="evenodd" clip-rule="evenodd" d="M349.681 124.273C388.15 138.008 392.517 187.111 423.82 212.474C461.513 243.014 541.047 236.223 545.795 283.171C550.423 328.938 475.635 338.362 439.645 368.96C407.653 396.159 391.224 439.846 349.681 449.905C212.282 522.788 219.975 473.584 198.482 427.354C174.859 376.545 93.2242 338.712 91.0577 283.171C88.6889 222.447 159.919 182.944 186.798 127.848C210.612 79.0339 296.808 105.396 349.681 124.273Z" fill="#34204C"/>
<path fill-rule="evenodd" clip-rule="evenodd" d="M339.671 160.193C370.107 171.053 373.563 209.879 398.33 229.933C428.153 254.081 491.081 248.711 494.838 285.833C498.5 322.021 439.326 329.472 410.851 353.666C385.539 375.172 372.54 409.715 339.671 417.669C230.96 475.298 237.046 436.392 220.04 399.838C201.35 359.664 136.76 329.749 135.046 285.833C133.171 237.818 189.53 206.584 210.797 163.019C229.638 124.422 297.837 145.266 339.671 160.193Z" fill="#211134"/>
</svg>
