<svg width="135" height="50" viewBox="0 0 135 50" fill="none" xmlns="http://www.w3.org/2000/svg">
<g clip-path="url(#clip0_53_630)">
<path d="M132.326 0.551472H2.85859C1.48354 0.551472 0.368835 1.66253 0.368835 3.03309V47.1507C0.368835 48.5213 1.48354 49.6324 2.85859 49.6324H132.326C133.701 49.6324 134.816 48.5213 134.816 47.1507V3.03309C134.816 1.66253 133.701 0.551472 132.326 0.551472Z" fill="black"/>
<path d="M30.4935 24.4622C30.4639 21.1795 33.1842 19.5824 33.3086 19.5081C31.768 17.2643 29.3801 16.9577 28.541 16.9333C26.5354 16.7224 24.59 18.1321 23.5684 18.1321C22.5264 18.1321 20.9531 16.9536 19.2575 16.9883C17.0756 17.0219 15.0343 18.2838 13.9148 20.2435C11.6044 24.2391 13.3275 30.1109 15.5411 33.3407C16.6484 34.9235 17.9422 36.6886 19.6358 36.6264C21.2926 36.5592 21.9115 35.5712 23.911 35.5712C25.8921 35.5712 26.4732 36.6264 28.2004 36.5857C29.9786 36.5592 31.0981 34.9978 32.1667 33.4008C33.4463 31.5898 33.9601 29.8023 33.9805 29.7106C33.9398 29.6974 30.5282 28.3967 30.4935 24.4622Z" fill="white"/>
<path d="M27.1905 14.6957C28.105 13.6061 28.7308 12.1237 28.5571 10.6193C27.2334 10.6752 25.578 11.4916 24.6247 12.5573C23.7813 13.4964 23.0279 15.0356 23.2226 16.4831C24.7095 16.5888 26.2362 15.7683 27.1905 14.6957Z" fill="white"/>
<path d="M53.8985 36.2085H51.6338L50.3933 32.2655H46.0812L44.8995 36.2085H42.6946L46.9678 22.7847H49.6064L53.8985 36.2085ZM50.0193 30.6112L48.8974 27.107C48.7787 26.7479 48.5554 25.9046 48.2283 24.5772H48.1884C48.0568 25.1481 47.8463 25.9914 47.5581 27.107L46.4552 30.6112H50.0193Z" fill="white"/>
<path d="M65.5174 31.4949C65.5174 33.1459 65.0598 34.451 64.1435 35.409C63.3233 36.2618 62.3037 36.6877 61.0878 36.6877C59.7748 36.6877 58.8307 36.2294 58.2573 35.3098V40.4035H56.0549V29.9512C56.0549 28.9142 56.027 27.851 55.9733 26.7604H57.9102L58.0332 28.3002H58.0745C58.809 27.1398 59.9236 26.5601 61.4194 26.5601C62.5888 26.5601 63.565 27.0123 64.3459 27.9178C65.1259 28.8252 65.5174 30.0169 65.5174 31.4949ZM63.2737 31.5738C63.2737 30.629 63.0567 29.85 62.6208 29.237C62.1446 28.5986 61.5051 28.2779 60.7035 28.2779C60.1602 28.2779 59.6664 28.456 59.2253 28.808C58.7831 29.1611 58.4939 29.6234 58.3586 30.197C58.2904 30.4631 58.2563 30.6806 58.2563 30.8525V32.4732C58.2563 33.1773 58.4774 33.7732 58.9195 34.2608C59.3616 34.7464 59.936 34.9902 60.6426 34.9902C61.4721 34.9902 62.1177 34.6755 62.5795 34.0514C63.0423 33.4252 63.2737 32.5997 63.2737 31.5738Z" fill="white"/>
<path d="M77.1362 31.4949C77.1362 33.1459 76.6786 34.451 75.7625 35.409C74.9413 36.2618 73.9228 36.6877 72.7061 36.6877C71.3943 36.6877 70.4502 36.2294 69.8759 35.3098V40.4035H67.6738V29.9512C67.6738 28.9142 67.6459 27.851 67.5922 26.7604H69.5289L69.6518 28.3002H69.6931C70.4265 27.1398 71.541 26.5601 73.0376 26.5601C74.2059 26.5601 75.183 27.0123 75.9649 27.9178C76.7437 28.8252 77.1362 30.0169 77.1362 31.4949ZM74.8917 31.5738C74.8917 30.629 74.6738 29.85 74.2379 29.237C73.7627 28.5986 73.1244 28.2779 72.3229 28.2779C71.7796 28.2779 71.2858 28.456 70.8427 28.808C70.4017 29.1611 70.1125 29.6234 69.9771 30.197C69.91 30.4631 69.8739 30.6806 69.8739 30.8525V32.4732C69.8739 33.1773 70.0959 33.7732 70.5359 34.2608C70.978 34.7453 71.5523 34.9902 72.2609 34.9902C73.0914 34.9902 73.7369 34.6755 74.1976 34.0514C74.6603 33.4252 74.8917 32.5997 74.8917 31.5738Z" fill="white"/>
<path d="M89.1701 32.239C89.1701 33.3827 88.7729 34.3132 87.9806 35.0315C87.1099 35.8155 85.8943 36.2085 84.3358 36.2085C82.8959 36.2085 81.7417 35.9297 80.8709 35.371L81.3666 33.5756C82.3067 34.1343 83.3393 34.4142 84.4635 34.4142C85.2719 34.4142 85.9003 34.2303 86.3487 33.8656C86.7992 33.4989 87.0254 33.0109 87.0254 32.4006C87.0254 31.8541 86.8384 31.3954 86.4684 31.0226C86.0974 30.6518 85.484 30.3042 84.6233 29.987C82.2806 29.109 81.1082 27.8239 81.1082 26.1357C81.1082 25.0324 81.5225 24.1292 82.348 23.423C83.1745 22.7178 84.2704 22.3652 85.6338 22.3652C86.8515 22.3652 87.866 22.5784 88.6714 23.0037L88.1334 24.7596C87.3753 24.3474 86.5197 24.1413 85.5624 24.1413C84.8063 24.1413 84.2121 24.3282 83.7888 24.7C83.4319 25.0324 83.2499 25.4376 83.2499 25.9185C83.2499 26.4489 83.456 26.8894 83.8672 27.2339C84.2232 27.5532 84.8727 27.8997 85.8118 28.2715C86.9641 28.7383 87.8097 29.2818 88.3526 29.9062C88.8986 30.5306 89.1701 31.3095 89.1701 32.239Z" fill="white"/>
<path d="M96.2243 28.587H93.8878V33.3993C93.8878 34.6233 94.2995 35.2337 95.1247 35.2337C95.5035 35.2337 95.8177 35.2007 96.0663 35.1315L96.1249 36.8037C95.7073 36.9659 95.1575 37.0475 94.4774 37.0475C93.6393 37.0475 92.9861 36.781 92.5128 36.2511C92.0415 35.7202 91.8059 34.8309 91.8059 33.579V28.5829H90.4149V26.9303H91.8059V25.1155L93.8878 24.4627V26.9303H96.2243V28.587Z" fill="white"/>
<path d="M107.013 31.5035C107.013 32.9874 106.586 34.2056 105.73 35.1583C104.835 36.1381 103.645 36.628 102.162 36.628C100.73 36.628 99.5915 36.1582 98.7426 35.2186C97.8937 34.279 97.4692 33.094 97.4692 31.6645C97.4692 30.1686 97.9089 28.9433 98.7822 27.9907C99.6575 27.038 100.837 26.5601 102.321 26.5601C103.752 26.5601 104.899 27.0319 105.769 27.9705C106.6 28.883 107.013 30.059 107.013 31.5035ZM104.769 31.5528C104.769 30.6686 104.576 29.9101 104.189 29.2753C103.735 28.5087 103.085 28.1265 102.244 28.1265C101.378 28.1265 100.71 28.5087 100.259 29.2753C99.8697 29.9101 99.6778 30.6817 99.6778 31.5931C99.6778 32.4783 99.8697 33.2389 100.259 33.8706C100.727 34.6382 101.38 35.0215 102.227 35.0215C103.053 35.0215 103.702 34.6291 104.172 33.8525C104.569 33.2026 104.769 32.4391 104.769 31.5528Z" fill="white"/>
<path d="M114.483 28.6911C114.261 28.651 114.024 28.6315 113.777 28.6315C112.989 28.6315 112.38 28.9203 111.951 29.5042C111.578 30.0182 111.392 30.6679 111.392 31.4522V36.628H109.153V29.8702C109.153 28.7343 109.131 27.6971 109.088 26.7647H111.039L111.12 28.652H111.182C111.42 28.0034 111.792 27.4802 112.302 27.0895C112.802 26.7359 113.34 26.5601 113.921 26.5601C114.128 26.5601 114.314 26.5756 114.48 26.6002L114.483 28.6911Z" fill="white"/>
<path d="M123.612 31.154C123.612 31.5391 123.586 31.8637 123.532 32.1289H116.997C117.021 33.0846 117.339 33.8164 117.945 34.3205C118.495 34.7701 119.209 34.9959 120.082 34.9959C121.05 34.9959 121.933 34.8447 122.727 34.5382L123.068 36.0302C122.14 36.4284 121.044 36.628 119.781 36.628C118.26 36.628 117.067 36.1865 116.198 35.3054C115.333 34.4233 114.898 33.2368 114.898 31.7529C114.898 30.2951 115.3 29.0804 116.109 28.1116C116.955 27.0773 118.099 26.5601 119.538 26.5601C120.951 26.5601 122.021 27.0773 122.746 28.1116C123.322 28.9312 123.612 29.9474 123.612 31.154ZM121.534 30.5966C121.55 29.9584 121.407 29.41 121.111 28.9443C120.734 28.3455 120.154 28.0471 119.376 28.0471C118.663 28.0471 118.084 28.3384 117.642 28.9231C117.279 29.3879 117.064 29.9474 116.997 30.5946L121.534 30.5966Z" fill="white"/>
<path d="M49.334 18.1702H48.243L47.6462 16.1991H45.5706L45.0012 18.1702H43.9395L45.9965 11.4583H47.2662L49.334 18.1702ZM47.4665 15.372L46.9263 13.6194C46.8697 13.4398 46.7652 13.0222 46.604 12.3552H46.5845C46.5181 12.6435 46.4233 13.0622 46.2807 13.6194L45.7504 15.372H47.4665Z" fill="white"/>
<path d="M54.7285 13.1363L52.9301 18.1703H51.904L50.1639 13.1363H51.2978L52.1094 15.7985C52.2463 16.2436 52.3631 16.6684 52.4507 17.0719H52.48C52.5585 16.71 52.6753 16.2852 52.8213 15.7985L53.6228 13.1363H54.7285Z" fill="white"/>
<path d="M58.384 18.0608L58.3088 17.5052H58.2808C57.9723 17.9523 57.5231 18.1703 56.9524 18.1703C56.1388 18.1703 55.5584 17.5645 55.5584 16.7501C55.5584 15.5592 56.5311 14.9432 58.2153 14.9432V14.8542C58.2153 14.2188 57.8971 13.9006 57.2705 13.9006C56.8213 13.9006 56.428 14.0203 56.0828 14.2587L55.8775 13.5538C56.2988 13.2755 56.8222 13.1363 57.4402 13.1363C58.6279 13.1363 59.2275 13.8014 59.2275 15.1325V16.9097C59.2275 17.3967 59.2468 17.7743 59.293 18.0618L58.384 18.0608ZM58.2432 15.6574C57.1201 15.6574 56.5591 15.9459 56.5591 16.6304C56.5591 17.1369 56.8492 17.3845 57.2512 17.3845C57.766 17.3845 58.2432 16.968 58.2432 16.4022V15.6574Z" fill="white"/>
<path d="M60.9529 11.6568C60.9529 11.2996 61.2259 11.0388 61.5757 11.0388C61.9245 11.0388 62.2072 11.2996 62.1975 11.6568C62.1975 12.0339 61.9342 12.2847 61.5563 12.2847C61.2172 12.2847 60.9529 12.014 60.9529 11.6568ZM61.0666 13.0579H62.0848V18.1702H61.0666V13.0579Z" fill="white"/>
<path d="M64.2725 11.0388H65.3099V18.1702H64.2725V11.0388Z" fill="white"/>
<path d="M70.0043 18.0608L69.9281 17.5053H69.9011C69.5924 17.9524 69.1429 18.1703 68.5719 18.1703C67.7579 18.1703 67.1772 17.5647 67.1772 16.7504C67.1772 15.5597 68.1504 14.9439 69.8355 14.9439V14.8549C69.8355 14.2196 69.5172 13.9015 68.8902 13.9015C68.4408 13.9015 68.0472 14.0212 67.7019 14.2595L67.4955 13.5537C67.917 13.2754 68.4408 13.1363 69.059 13.1363C70.2473 13.1363 70.8482 13.8012 70.8482 15.1321V16.909C70.8482 17.3959 70.8675 17.7733 70.9119 18.0608H70.0043ZM69.8634 15.6579C68.7398 15.6579 68.1784 15.9464 68.1784 16.6307C68.1784 17.1371 68.4687 17.3846 68.8709 17.3846C69.386 17.3846 69.8634 16.9683 69.8634 16.4026V15.6579Z" fill="white"/>
<path d="M75.0394 18.1702C74.3672 18.1702 73.8709 17.8824 73.5483 17.318H73.5282L73.4679 18.061H72.5717C72.5998 17.6752 72.6099 17.2384 72.6099 16.7638V11.0388H73.6649V13.9518H73.684C73.9964 13.417 74.5028 13.1496 75.1951 13.1496C76.3365 13.1496 77.1363 14.1407 77.1363 15.5859C77.1363 17.0802 76.2481 18.1702 75.0394 18.1702ZM74.8254 13.9896C74.2195 13.9896 73.6649 14.5244 73.6649 15.2675V16.1095C73.6649 16.773 74.1632 17.318 74.8063 17.318C75.595 17.318 76.0652 16.6648 76.0652 15.6247C76.0642 14.654 75.5759 13.9896 74.8254 13.9896Z" fill="white"/>
<path d="M78.7961 11.0388H79.8335V18.1702H78.7961V11.0388Z" fill="white"/>
<path d="M85.3993 15.9219H82.2862C82.307 16.8374 82.8908 17.3542 83.7547 17.3542C84.2168 17.3542 84.6393 17.2742 85.0133 17.1255L85.1746 17.8719C84.7333 18.0708 84.2148 18.1703 83.6102 18.1703C82.1497 18.1703 81.2858 17.2147 81.2858 15.7333C81.2858 14.2508 82.1705 13.1363 83.4944 13.1363C84.6838 13.1363 85.4349 14.0519 85.4349 15.4349C85.4378 15.6236 85.4289 15.7927 85.3993 15.9219ZM84.4493 15.156C84.4493 14.4097 84.0832 13.8827 83.4202 13.8827C82.8245 13.8827 82.3555 14.4199 82.2862 15.156H84.4493Z" fill="white"/>
<path d="M92.2433 18.1703C90.8821 18.1703 90 17.1174 90 15.6881C90 14.1984 90.9009 13.1363 92.3213 13.1363C93.6617 13.1363 94.5645 14.139 94.5645 15.6093C94.5645 17.1174 93.6341 18.1703 92.2433 18.1703ZM92.2828 13.9201C91.535 13.9201 91.0559 14.6444 91.0559 15.6574C91.0559 16.6509 91.5449 17.3753 92.2729 17.3753C93.0009 17.3753 93.4898 16.6007 93.4898 15.6369C93.4898 14.6547 93.0108 13.9201 92.2828 13.9201Z" fill="white"/>
<path d="M99.959 18.1703H98.9088V15.3385C98.9088 14.4664 98.5865 14.0293 97.953 14.0293C97.3295 14.0293 96.8997 14.5877 96.8997 15.2371V18.1703H95.8496V14.6484C95.8496 14.2123 95.8375 13.7449 95.8094 13.2377H96.7351L96.7843 13.999H96.8144C97.0945 13.472 97.6708 13.1363 98.3144 13.1363C99.3064 13.1363 99.959 13.9279 99.959 15.2162V18.1703Z" fill="white"/>
<path d="M107.013 13.9382H105.846V16.3442C105.846 16.9567 106.051 17.2625 106.463 17.2625C106.65 17.2625 106.809 17.2415 106.935 17.211L106.965 18.0473C106.758 18.1293 106.482 18.1702 106.14 18.1702C105.303 18.1702 104.804 17.6911 104.804 16.4367V13.9382H104.109V13.1124H104.804V12.2046L105.846 11.8778V13.1113H107.013V13.9382Z" fill="white"/>
<path d="M112.823 18.1702H111.76V15.384C111.76 14.5092 111.435 14.0666 110.797 14.0666C110.246 14.0666 109.736 14.4491 109.736 15.2234V18.1702H108.673V11.0388H109.736V13.9754H109.756C110.089 13.4426 110.573 13.1803 111.192 13.1803C112.204 13.1803 112.823 13.9847 112.823 15.2627V18.1702Z" fill="white"/>
<path d="M118.182 15.9219H115.069C115.089 16.8374 115.673 17.3542 116.538 17.3542C117.001 17.3542 117.423 17.2742 117.795 17.1255L117.957 17.8719C117.517 18.0708 116.997 18.1703 116.391 18.1703C114.932 18.1703 114.068 17.2147 114.068 15.7333C114.068 14.2508 114.951 13.1363 116.276 13.1363C117.466 13.1363 118.216 14.0519 118.216 15.4349C118.22 15.6236 118.21 15.7927 118.182 15.9219ZM117.231 15.156C117.231 14.4097 116.866 13.8827 116.203 13.8827C115.608 13.8827 115.137 14.4199 115.069 15.156H117.231Z" fill="white"/>
</g>
<defs>
<clipPath id="clip0_53_630">
<rect width="135" height="50" fill="white"/>
</clipPath>
</defs>
</svg>
