<svg width="53" height="53" viewBox="0 0 53 53" fill="none" xmlns="http://www.w3.org/2000/svg">
<rect x="1" y="0.96875" width="51" height="51" rx="7.5" stroke="#D8D8DA"/>
<mask id="path-2-inside-1_2471_10188" fill="white">
<path fill-rule="evenodd" clip-rule="evenodd" d="M29.0536 10.7911L21.0987 18.8281L12.0492 27.7833C11.2966 28.5281 11.824 29.8109 12.8829 29.8109H24.1578L20.9644 40.9876C20.6276 42.1666 22.0838 43.0185 22.9464 42.147L30.9013 34.11L39.9508 25.1548C40.7034 24.41 40.176 23.1272 39.1171 23.1272L27.8422 23.1272L31.0356 11.9505C31.3724 10.7714 29.9162 9.91961 29.0536 10.7911Z"/>
</mask>
<path fill-rule="evenodd" clip-rule="evenodd" d="M29.0536 10.7911L21.0987 18.8281L12.0492 27.7833C11.2966 28.5281 11.824 29.8109 12.8829 29.8109H24.1578L20.9644 40.9876C20.6276 42.1666 22.0838 43.0185 22.9464 42.147L30.9013 34.11L39.9508 25.1548C40.7034 24.41 40.176 23.1272 39.1171 23.1272L27.8422 23.1272L31.0356 11.9505C31.3724 10.7714 29.9162 9.91961 29.0536 10.7911Z" fill="white"/>
<path d="M21.0987 18.8281L21.8022 19.5389L21.8095 19.5315L21.0987 18.8281ZM29.0536 10.7911L29.7643 11.4946L29.7643 11.4946L29.0536 10.7911ZM12.0492 27.7833L12.7526 28.4941L12.0492 27.7833ZM24.1578 29.8109L25.1193 30.0856L25.4835 28.8109H24.1578V29.8109ZM20.9644 40.9876L20.0029 40.7129L20.9644 40.9876ZM22.9464 42.147L22.2357 41.4435H22.2357L22.9464 42.147ZM30.9013 34.11L30.1978 33.3992L30.1905 33.4066L30.9013 34.11ZM39.9508 25.1548L39.2474 24.444L39.9508 25.1548ZM39.1171 23.1272V24.1272V23.1272ZM27.8422 23.1272L26.8807 22.8524L26.5165 24.1272H27.8422V23.1272ZM31.0356 11.9505L31.9971 12.2252L31.9971 12.2252L31.0356 11.9505ZM21.8095 19.5315L29.7643 11.4946L28.3429 10.0877L20.388 18.1246L21.8095 19.5315ZM12.7526 28.4941L21.8021 19.5389L20.3953 18.1173L11.3458 27.0725L12.7526 28.4941ZM12.8829 28.8109C12.8273 28.8109 12.797 28.7962 12.7773 28.7823C12.753 28.7651 12.728 28.7361 12.7116 28.6961C12.6952 28.6562 12.6925 28.618 12.6977 28.5887C12.7019 28.5649 12.7131 28.5332 12.7526 28.4941L11.3458 27.0725C9.95812 28.4457 10.9306 30.8109 12.8829 30.8109V28.8109ZM24.1578 28.8109H12.8829V30.8109H24.1578V28.8109ZM21.926 41.2623L25.1193 30.0856L23.1962 29.5362L20.0029 40.7129L21.926 41.2623ZM22.2357 41.4435C22.1843 41.4954 22.1491 41.502 22.1298 41.5039C22.1005 41.5067 22.0568 41.5002 22.0105 41.4731C21.9642 41.446 21.9371 41.4111 21.9252 41.3842C21.9174 41.3665 21.9059 41.3325 21.926 41.2623L20.0029 40.7129C19.3818 42.8867 22.0667 44.4573 23.6571 42.8504L22.2357 41.4435ZM30.1905 33.4066L22.2357 41.4435L23.6571 42.8504L31.612 34.8135L30.1905 33.4066ZM39.2474 24.444L30.1979 33.3992L31.6046 34.8208L40.6541 25.8656L39.2474 24.444ZM39.1171 24.1272C39.1727 24.1272 39.203 24.1419 39.2227 24.1558C39.247 24.173 39.2719 24.202 39.2884 24.2419C39.3048 24.2819 39.3074 24.3201 39.3023 24.3494C39.298 24.3731 39.2869 24.4049 39.2474 24.444L40.6541 25.8656C42.0419 24.4924 41.0694 22.1272 39.1171 22.1272V24.1272ZM27.8422 24.1272L39.1171 24.1272V22.1272L27.8422 22.1272V24.1272ZM30.074 11.6758L26.8807 22.8524L28.8037 23.4019L31.9971 12.2252L30.074 11.6758ZM29.7643 11.4946C29.8157 11.4427 29.8509 11.4361 29.8702 11.4342C29.8994 11.4314 29.9432 11.4379 29.9895 11.465C30.0358 11.4921 30.0629 11.527 30.0747 11.5538C30.0826 11.5716 30.0941 11.6056 30.074 11.6758L31.9971 12.2252C32.6182 10.0514 29.9333 8.48082 28.3429 10.0877L29.7643 11.4946Z" fill="white" mask="url(#path-2-inside-1_2471_10188)"/>
</svg>
