<svg width="40" height="40" viewBox="0 0 40 40" fill="none" xmlns="http://www.w3.org/2000/svg">
<path d="M0.5 9C0.5 4.30558 4.30558 0.5 9 0.5L31 0.5C35.6944 0.5 39.5 4.30558 39.5 9L39.5 31C39.5 35.6944 35.6944 39.5 31 39.5L9 39.5C4.30558 39.5 0.5 35.6944 0.5 31L0.5 9Z" stroke="white"/>
<path d="M15.4378 28.2898L13.8538 29.9248L10.5837 26.7569L12.1677 25.1219L15.4378 28.2898ZM25.2363 11.6317C26.1111 10.7287 27.5523 10.7058 28.4553 11.5806C29.3583 12.4554 29.3812 13.8966 28.5064 14.7996L25.2363 11.6317ZM12.1677 25.1219L25.2363 11.6317L28.5064 14.7996L15.4378 28.2898L12.1677 25.1219Z" fill="white"/>
<path d="M25.4802 13.2157C25.4802 11.9351 26.5183 10.897 27.7988 10.897C29.0794 10.897 30.1175 11.9351 30.1175 13.2157H25.4802ZM30.1175 23.7549V26.0735H25.4802V23.7549H30.1175ZM30.1175 13.2157V23.7549H25.4802V13.2157H30.1175Z" fill="white"/>
<path d="M27.8025 10.6863C28.9666 10.6863 29.9104 11.6301 29.9104 12.7942C29.9104 13.9583 28.9666 14.902 27.8025 14.902V10.6863ZM16.7539 14.902H14.6461V10.6863H16.7539V14.902ZM27.8025 14.902L16.7539 14.902V10.6863L27.8025 10.6863V14.902Z" fill="white"/>
</svg>
