<svg width="25" height="25" viewBox="0 0 25 25" fill="none" xmlns="http://www.w3.org/2000/svg">
<path d="M3.89609 9.08787C3.75013 8.4304 3.77254 7.74671 3.96125 7.10021C4.14995 6.45371 4.49884 5.86532 4.97556 5.38959C5.45228 4.91387 6.0414 4.56622 6.6883 4.37887C7.3352 4.19152 8.01892 4.17054 8.67609 4.31787C9.0378 3.75217 9.53609 3.28663 10.125 2.96416C10.714 2.64168 11.3746 2.47266 12.0461 2.47266C12.7175 2.47266 13.3782 2.64168 13.9671 2.96416C14.5561 3.28663 15.0544 3.75217 15.4161 4.31787C16.0743 4.16989 16.7592 4.19078 17.4071 4.37858C18.055 4.56639 18.6449 4.91501 19.1219 5.39202C19.5989 5.86904 19.9476 6.45894 20.1354 7.10687C20.3232 7.7548 20.3441 8.4397 20.1961 9.09787C20.7618 9.45958 21.2273 9.95787 21.5498 10.5468C21.8723 11.1358 22.0413 11.7964 22.0413 12.4679C22.0413 13.1393 21.8723 13.8 21.5498 14.3889C21.2273 14.9779 20.7618 15.4762 20.1961 15.8379C20.3434 16.495 20.3224 17.1788 20.1351 17.8257C19.9477 18.4726 19.6001 19.0617 19.1244 19.5384C18.6486 20.0151 18.0603 20.364 17.4138 20.5527C16.7672 20.7414 16.0836 20.7638 15.4261 20.6179C15.0649 21.1857 14.5662 21.6533 13.9762 21.9772C13.3863 22.3011 12.7241 22.4709 12.0511 22.4709C11.3781 22.4709 10.7159 22.3011 10.126 21.9772C9.53601 21.6533 9.03733 21.1857 8.67609 20.6179C8.01892 20.7652 7.3352 20.7442 6.6883 20.5569C6.0414 20.3695 5.45228 20.0219 4.97556 19.5462C4.49884 19.0704 4.14995 18.482 3.96125 17.8355C3.77254 17.189 3.75013 16.5053 3.89609 15.8479C3.32605 15.4871 2.85651 14.988 2.53114 14.3971C2.20577 13.8061 2.03516 13.1425 2.03516 12.4679C2.03516 11.7933 2.20577 11.1296 2.53114 10.5387C2.85651 9.9477 3.32605 9.44863 3.89609 9.08787Z" stroke="#A09FA6" stroke-width="2" stroke-linecap="round" stroke-linejoin="round"/>
<path d="M12.0469 8.46875V12.4687" stroke="#A09FA6" stroke-width="2" stroke-linecap="round" stroke-linejoin="round"/>
<path d="M12.0469 16.4688H12.0569" stroke="#A09FA6" stroke-width="2" stroke-linecap="round" stroke-linejoin="round"/>
</svg>
