<svg width="40" height="40" viewBox="0 0 40 40" fill="none" xmlns="http://www.w3.org/2000/svg">
<path d="M14.4392 10.6214L12.5606 8.6821L8.6821 12.4394L10.5608 14.3786L14.4392 10.6214ZM26.0608 30.3786C27.0983 31.4497 28.8076 31.4768 29.8786 30.4392C30.9497 29.4017 30.9768 27.6924 29.9392 26.6214L26.0608 30.3786ZM10.5608 14.3786L26.0608 30.3786L29.9392 26.6214L14.4392 10.6214L10.5608 14.3786Z" fill="#0B0B0C"/>
<path d="M26.3501 28.5C26.3501 30.0188 27.5813 31.25 29.1001 31.25C30.6189 31.25 31.8501 30.0188 31.8501 28.5H26.3501ZM31.8501 16V13.25H26.3501V16H31.8501ZM31.8501 28.5V16H26.3501V28.5H31.8501Z" fill="#0B0B0C"/>
<path d="M29.1047 31.5C30.4854 31.5 31.6047 30.3807 31.6047 29C31.6047 27.6193 30.4854 26.5 29.1047 26.5V31.5ZM16.0005 26.5H13.5005V31.5H16.0005V26.5ZM29.1047 26.5H16.0005V31.5H29.1047V26.5Z" fill="#0B0B0C"/>
</svg>
