<svg width="40" height="40" viewBox="0 0 40 40" fill="none" xmlns="http://www.w3.org/2000/svg">
<g clip-path="url(#clip0_721_7788)">
<path d="M9 29.9361C10.6639 27.1607 14.3106 25.2612 20 25.2612C25.6894 25.2612 29.3361 27.1607 31 29.9361" stroke="#0B0B0C" stroke-width="4.2087" stroke-linecap="square"/>
<path d="M24.8787 13.8959C24.8787 16.5373 22.7374 18.6785 20.096 18.6785C17.4547 18.6785 15.3134 16.5373 15.3134 13.8959C15.3134 11.2545 17.4547 9.11324 20.096 9.11324C22.7374 9.11324 24.8787 11.2545 24.8787 13.8959Z" stroke="#0B0B0C" stroke-width="3.82609"/>
<rect x="29.8711" y="15.6001" width="2.86364" height="8.79545" fill="#0B0B0C"/>
<path d="M35.7012 18.5659L35.7012 21.4296L26.7012 21.4296L26.7012 18.5659L35.7012 18.5659Z" fill="#0B0B0C"/>
</g>
<defs>
<clipPath id="clip0_721_7788">
<rect width="40" height="40" fill="white" transform="matrix(0 -1 1 0 0 40)"/>
</clipPath>
</defs>
</svg>
