<svg width="40" height="40" viewBox="0 0 40 40" fill="none" xmlns="http://www.w3.org/2000/svg">
<path d="M13.4086 28.9719C13.4086 30.4079 12.2445 31.5719 10.8086 31.5719C9.37265 31.5719 8.20859 30.4079 8.20859 28.9719H13.4086ZM8.20859 26.4719V23.8719H13.4086V26.4719H8.20859ZM8.20859 28.9719V26.4719H13.4086V28.9719H8.20859Z" fill="#0B0B0C"/>
<path d="M10.804 31.9719C9.42332 31.9719 8.30403 30.8526 8.30403 29.4719C8.30403 28.0912 9.42332 26.9719 10.804 26.9719V31.9719ZM14.9082 26.9719H17.4082V31.9719H14.9082V26.9719ZM10.804 26.9719H14.9082V31.9719H10.804V26.9719Z" fill="#0B0B0C"/>
<path d="M26.8399 28.9719C26.8399 30.4079 28.004 31.5719 29.4399 31.5719C30.8759 31.5719 32.0399 30.4079 32.0399 28.9719H26.8399ZM32.0399 26.4719V23.8719H26.8399V26.4719H32.0399ZM32.0399 28.9719V26.4719H26.8399V28.9719H32.0399Z" fill="#0B0B0C"/>
<path d="M29.4445 31.9719C30.8252 31.9719 31.9445 30.8526 31.9445 29.4719C31.9445 28.0912 30.8252 26.9719 29.4445 26.9719V31.9719ZM25.3403 26.9719H22.8403V31.9719H25.3403V26.9719ZM29.4445 26.9719H25.3403V31.9719H29.4445V26.9719Z" fill="#0B0B0C"/>
<path d="M13.4086 11.1926C13.4086 9.75669 12.2445 8.59263 10.8086 8.59263C9.37265 8.59263 8.20859 9.75669 8.20859 11.1926H13.4086ZM8.20859 14.6926V17.2926H13.4086V14.6926H8.20859ZM8.20859 11.1926V14.6926H13.4086V11.1926H8.20859Z" fill="#0B0B0C"/>
<path d="M10.804 8.19263C9.42332 8.19263 8.30403 9.31192 8.30403 10.6926C8.30403 12.0733 9.42332 13.1926 10.804 13.1926V8.19263ZM14.9082 13.1926H17.4082V8.19263H14.9082V13.1926ZM10.804 13.1926H14.9082V8.19263H10.804V13.1926Z" fill="#0B0B0C"/>
<path d="M26.8395 11.1926C26.8395 9.75669 28.0035 8.59263 29.4395 8.59263C30.8754 8.59263 32.0395 9.75669 32.0395 11.1926H26.8395ZM32.0395 13.6926V16.2926H26.8395V13.6926H32.0395ZM32.0395 11.1926V13.6926H26.8395V11.1926H32.0395Z" fill="#0B0B0C"/>
<path d="M29.444 8.19263C30.8247 8.19263 31.944 9.31192 31.944 10.6926C31.944 12.0733 30.8247 13.1926 29.444 13.1926V8.19263ZM25.3398 13.1926H22.8398V8.19263H25.3398V13.1926ZM29.444 13.1926H25.3398V8.19263H29.444V13.1926Z" fill="#0B0B0C"/>
</svg>
