<svg width="40" height="40" viewBox="0 0 40 40" fill="none" xmlns="http://www.w3.org/2000/svg">
<path d="M14.4392 29.3786L12.5606 31.3179L8.6821 27.5606L10.5608 25.6214L14.4392 29.3786ZM26.0608 9.62135C27.0983 8.55033 28.8076 8.5232 29.8786 9.56075C30.9497 10.5983 30.9768 12.3076 29.9392 13.3786L26.0608 9.62135ZM10.5608 25.6214L26.0608 9.62135L29.9392 13.3786L14.4392 29.3786L10.5608 25.6214Z" fill="#0B0B0C"/>
<path d="M26.3501 11.5C26.3501 9.98122 27.5813 8.75 29.1001 8.75C30.6189 8.75 31.8501 9.98122 31.8501 11.5H26.3501ZM31.8501 24V26.75H26.3501V24H31.8501ZM31.8501 11.5L31.8501 24H26.3501L26.3501 11.5H31.8501Z" fill="#0B0B0C"/>
<path d="M29.1047 8.5C30.4854 8.5 31.6047 9.61929 31.6047 11C31.6047 12.3807 30.4854 13.5 29.1047 13.5V8.5ZM16.0005 13.5H13.5005V8.5H16.0005V13.5ZM29.1047 13.5L16.0005 13.5V8.5L29.1047 8.5V13.5Z" fill="#0B0B0C"/>
</svg>
