<svg width="40" height="40" viewBox="0 0 40 40" fill="none" xmlns="http://www.w3.org/2000/svg">
<path d="M10.1441 18.0873L7.44446 18.0409L7.35165 23.4401L10.0512 23.4865L10.1441 18.0873ZM30.618 23.84C32.109 23.8656 33.3384 22.6778 33.364 21.1868C33.3896 19.6959 32.2018 18.4664 30.7108 18.4408L30.618 23.84ZM10.0512 23.4865L30.618 23.84L30.7108 18.4408L10.1441 18.0873L10.0512 23.4865Z" fill="#0B0B0C"/>
<path d="M30.2755 22.2367C31.3104 23.2716 32.9883 23.2716 34.0232 22.2367C35.0581 21.2018 35.0581 19.5239 34.0232 18.489L30.2755 22.2367ZM26.1844 10.6502L24.3105 8.77638L20.5629 12.524L22.4367 14.3979L26.1844 10.6502ZM34.0232 18.489L26.1844 10.6502L22.4367 14.3979L30.2755 22.2367L34.0232 18.489Z" fill="#0B0B0C"/>
<path d="M34.3801 22.587C35.415 21.5521 35.415 19.8743 34.3801 18.8394C33.3452 17.8045 31.6673 17.8045 30.6325 18.8394L34.3801 22.587ZM22.3664 27.1054L20.4926 28.9792L24.2402 32.7269L26.1141 30.8531L22.3664 27.1054ZM30.6325 18.8394L22.3664 27.1054L26.1141 30.8531L34.3801 22.587L30.6325 18.8394Z" fill="#0B0B0C"/>
</svg>
